# xmcd CD database file
#
# Track frame offsets:
#	150
#	40339
#	91770
#	127405
#	145967
#	173500
#	202694
#	228478
#	253194
#	284520
#	317414
#
# Disc length: 4575 seconds
#
# Revision: 2
# Processed by: cddbd v1.4b41PL1 Copyright (c) Steve Scherf et al.
# Submitted via: Feurio! 1.52 - http://www.feurio.com
#
DISCID=9911dd0b
DTITLE=Bugs Henderson - Call Of The Wild (Live at the Meisenfrei) - CD2
DYEAR=1999
DGENRE=
TTITLE0=Got My Mojo Working
TTITLE1=Rocket In My Pocket
TTITLE2=Ventures Medley: Walk Don't Run, Perfidia, etc.
TTITLE3=Outside Woman Blues
TTITLE4=Blue Casino
TTITLE5=Johnny Heat
TTITLE6=Texas Ballbuster
TTITLE7=Dance Till The Moon Go Down
TTITLE8=Lucille
TTITLE9=Big D Shuffle - Link Wray Medley
TTITLE10=(Audio liner notes)
EXTD=YEAR:1999 Taxim Records
EXTT0=
EXTT1=
EXTT2=
EXTT3=
EXTT4=
EXTT5=
EXTT6=
EXTT7=
EXTT8=
EXTT9=
EXTT10=
PLAYORDER=
